PathFileType	4	(x/y/z)	S02_BK_Cal_T01
DataRate	CameraRate	NumFrames	NumMarkers	Units	OrigDataRate	OrigDataStartFrame	OrigNumFrames
240	240	5	51	mm	240	301	2400
Frame#	Time	Sternum			R.Acromium			L.Acromium			Top.Head			R.ASIS			L.ASIS			R.PSIS			L.PSIS			R.Great.Tro			L.Great.Tro			R.Iliac.Crest			L.Iliac.Crest			V.Sacral			R.Thigh.Upper.Post			R.Thigh.Lower.Ant			R.Thigh.Lower.Post			R.Thigh.Upper.Ant			R.Knee.Lat			R.Knee.Med			R.Shank.Upper.Post			R.Shank.Lower.Ant			R.Shank.Lower.Post			R.Shank.Upper.Ant			R.Ankle.Lat			R.Ankle.Med			R.Heel.Upper			R.Heel.Med			R.Heel.Lat			R.Toe.Lat			R.Toe.Med			R.Toe.Tip			L.Thigh.Upper.Post			L.Thigh.Lower.Ant			L.Thigh.Lower.Post			L.Thigh.Upper.Ant			L.Knee.Lat			L.Knee.Med			L.Shank.Upper.Post			L.Shank.Lower.Ant			L.Shank.Lower.Post			L.Shank.Upper.Ant			L.Ankle.Lat			L.Ankle.Med			L.Heel.Upper			L.Heel.Med			L.Heel.Lat			L.Toe.Lat			L.Toe.Med			L.Toe.Tip			Cervical.Spine			Back			
		X1	Y1	Z1	X2	Y2	Z2	X3	Y3	Z3	X4	Y4	Z4	X5	Y5	Z5	X6	Y6	Z6	X7	Y7	Z7	X8	Y8	Z8	X9	Y9	Z9	X10	Y10	Z10	X11	Y11	Z11	X12	Y12	Z12	X13	Y13	Z13	X14	Y14	Z14	X15	Y15	Z15	X16	Y16	Z16	X17	Y17	Z17	X18	Y18	Z18	X19	Y19	Z19	X20	Y20	Z20	X21	Y21	Z21	X22	Y22	Z22	X23	Y23	Z23	X24	Y24	Z24	X25	Y25	Z25	X26	Y26	Z26	X27	Y27	Z27	X28	Y28	Z28	X29	Y29	Z29	X30	Y30	Z30	X31	Y31	Z31	X32	Y32	Z32	X33	Y33	Z33	X34	Y34	Z34	X35	Y35	Z35	X36	Y36	Z36	X37	Y37	Z37	X38	Y38	Z38	X39	Y39	Z39	X40	Y40	Z40	X41	Y41	Z41	X42	Y42	Z42	X43	Y43	Z43	X44	Y44	Z44	X45	Y45	Z45	X46	Y46	Z46	X47	Y47	Z47	X48	Y48	Z48	X49	Y49	Z49	X50	Y50	Z50	X51	Y51	Z51	

301	1.25	618.47	1065.9	316.8	518.01	1305.3	464.37	506.83	1305.4	168.75	559.84	1596	316.15	579.04	882.24	420.15	574.14	875.82	205.8	357.92	915.46	369.65	351.51	917.36	294.54	509.9	779.07	516.15	450.37	791.84	122.39	480.6	934.56	478.98	453.48	931.96	148.26	331.95	866.97	327.18	577.17	588.52	511.51	653.83	527.36	482.29	587.95	499.23	496.58	638.95	615.23	493.56	624.46	428.78	486.36	621.91	406.17	347.1	492.08	256.96	478.31	535.98	156.39	468.61	475.32	185.49	473.86	555.87	222.9	482.38	459.04	90.099	466.78	473.42	96.573	382.46	399.09	72.833	406.63	416.42	40.27	381.59	397.95	41.877	443.16	552.58	41.833	507.83	599.84	35.161	405.58	638.86	64.37	467.78	505.3	566.6	126.12	603.71	518.58	111.24	538.95	482.33	138.32	562.36	604.67	102.07	612.6	436.12	114.08	628.39	422.46	249.76	495.32	292.64	113.75	539.77	190.27	113.08	475.78	220.98	124.15	554.05	264.94	104.81	464.93	103.09	123.13	485.3	92.879	205.01	406.21	67.27	162.63	420.87	40.691	193.63	408.03	39.937	133.54	567.68	36.895	79.263	604.67	45.919	184.26	657.24	63.331	129.76	437.58	1366.9	318.79	362.53	1118.2	329.55
302	1.2542	618.5	1065.9	316.83	518.03	1305.3	464.39	506.87	1305.4	168.77	559.86	1596	316.16	579.07	882.24	420.18	574.16	875.82	205.83	357.95	915.46	369.68	351.54	917.36	294.57	509.93	779.07	516.18	450.39	791.85	122.42	480.63	934.56	479.01	453.51	931.96	148.29	331.98	866.97	327.21	577.19	588.51	511.53	653.85	527.35	482.31	587.96	499.22	496.6	638.97	615.22	493.58	624.48	428.77	486.38	621.93	406.18	347.11	492.09	256.96	478.32	535.99	156.38	468.62	475.32	185.49	473.86	555.87	222.9	482.41	459.04	90.099	466.78	473.43	96.575	382.46	399.09	72.838	406.63	416.42	40.27	381.59	397.95	41.878	443.16	552.58	41.832	507.83	599.84	35.16	405.58	638.86	64.369	467.78	505.31	566.6	126.15	603.72	518.58	111.28	538.96	482.33	138.34	562.37	604.68	102.09	612.61	436.12	114.09	628.41	422.46	249.79	495.32	292.64	113.76	539.77	190.27	113.09	475.79	220.98	124.16	554.05	264.94	104.82	464.92	103.09	123.12	485.3	92.88	205.02	406.21	67.273	162.63	420.87	40.691	193.63	408.03	39.939	133.54	567.68	36.895	79.263	604.67	45.918	184.26	657.24	63.33	129.76	437.6	1366.9	318.8	362.56	1118.2	329.58
303	1.2583	618.53	1065.9	316.86	518.06	1305.3	464.41	506.9	1305.4	168.79	559.88	1596	316.17	579.09	882.25	420.22	574.18	875.83	205.86	357.97	915.46	369.71	351.56	917.37	294.59	509.95	779.07	516.21	450.41	791.86	122.44	480.65	934.57	479.04	453.53	931.96	148.32	332.01	866.98	327.24	577.2	588.51	511.56	653.86	527.35	482.33	587.98	499.22	496.62	638.99	615.22	493.61	624.49	428.77	486.39	621.94	406.18	347.13	492.1	256.96	478.33	535.99	156.38	468.62	475.33	185.49	473.87	555.87	222.91	482.45	459.04	90.098	466.79	473.43	96.576	382.46	399.09	72.842	406.63	416.42	40.271	381.59	397.95	41.879	443.16	552.58	41.831	507.83	599.84	35.16	405.58	638.86	64.369	467.78	505.32	566.6	126.17	603.74	518.58	111.31	538.97	482.33	138.36	562.39	604.68	102.1	612.62	436.12	114.1	628.43	422.45	249.82	495.33	292.64	113.77	539.77	190.27	113.09	475.79	220.99	124.16	554.06	264.94	104.83	464.92	103.1	123.12	485.3	92.881	205.02	406.21	67.276	162.63	420.88	40.692	193.63	408.03	39.94	133.54	567.68	36.896	79.263	604.67	45.916	184.26	657.24	63.33	129.76	437.63	1366.9	318.81	362.59	1118.2	329.6
304	1.2625	618.56	1065.9	316.89	518.09	1305.3	464.42	506.94	1305.4	168.8	559.89	1596.1	316.18	579.11	882.25	420.25	574.21	875.83	205.89	358	915.47	369.74	351.59	917.37	294.62	509.97	779.07	516.24	450.44	791.86	122.47	480.67	934.57	479.07	453.56	931.96	148.34	332.03	866.98	327.27	577.22	588.5	511.58	653.88	527.34	482.35	588	499.21	496.64	639.01	615.21	493.63	624.5	428.76	486.41	621.96	406.19	347.14	492.1	256.95	478.33	535.99	156.38	468.63	475.33	185.49	473.87	555.87	222.91	482.48	459.05	90.098	466.79	473.43	96.577	382.47	399.09	72.846	406.62	416.42	40.271	381.59	397.95	41.88	443.16	552.59	41.83	507.83	599.84	35.16	405.58	638.87	64.369	467.78	505.34	566.61	126.19	603.75	518.58	111.34	538.98	482.33	138.38	562.4	604.68	102.12	612.62	436.11	114.12	628.45	422.44	249.86	495.33	292.64	113.78	539.78	190.27	113.1	475.79	220.99	124.17	554.06	264.94	104.83	464.92	103.11	123.12	485.3	92.882	205.02	406.21	67.279	162.63	420.89	40.693	193.62	408.03	39.942	133.54	567.68	36.896	79.264	604.68	45.914	184.26	657.24	63.329	129.76	437.66	1366.9	318.82	362.62	1118.2	329.62
305	1.2667	618.59	1065.9	316.92	518.12	1305.3	464.44	506.97	1305.4	168.82	559.9	1596.1	316.19	579.13	882.25	420.28	574.23	875.83	205.92	358.02	915.47	369.77	351.61	917.38	294.65	510	779.07	516.27	450.46	791.87	122.5	480.7	934.57	479.1	453.58	931.97	148.37	332.06	866.99	327.3	577.23	588.5	511.61	653.89	527.34	482.37	588.01	499.2	496.66	639.03	615.2	493.65	624.51	428.75	486.42	621.98	406.19	347.15	492.11	256.95	478.34	535.99	156.38	468.63	475.33	185.49	473.87	555.87	222.91	482.5	459.05	90.097	466.79	473.43	96.578	382.47	399.08	72.849	406.62	416.42	40.272	381.59	397.95	41.881	443.16	552.59	41.829	507.83	599.84	35.159	405.58	638.87	64.369	467.79	505.35	566.61	126.21	603.77	518.58	111.38	538.99	482.33	138.4	562.42	604.68	102.13	612.63	436.11	114.13	628.46	422.43	249.89	495.34	292.65	113.79	539.78	190.28	113.1	475.79	220.99	124.18	554.06	264.94	104.84	464.92	103.11	123.13	485.3	92.883	205.03	406.21	67.282	162.63	420.9	40.694	193.62	408.03	39.944	133.54	567.69	36.896	79.264	604.68	45.913	184.27	657.24	63.329	129.76	437.69	1366.9	318.83	362.66	1118.2	329.64
